<svg xmlns="http://www.w3.org/2000/svg" viewBox="0 0 670.54 644" width="320" height="307" style="overflow: visible; height: 240px; width: 250px">
  <path d="M4375.87,388.16l74.02,139.87c2.65,3.98,1.33,8.06-2.97,9.11l-76.97,18.72c-4.85.83-9.74-1.2-12.59-5.21l-74.02-139.87c-2.65-4.01-1.330-8.09,2.97-9.13l76.9-18.8c4.89-.82,9.82,1.25,12.66,5.32Z" transform="matrix(1.076 0 0 1.076 2.35 1.74) translate(-4287.00 0)" fill="#00BC6C" />
  <path d="M4366.7,390.3l74.02,139.87c2.65,3.98,1.33,8.09-2.97,9.13l-76.93,18.81c-4.88.8-9.78-1.28-12.61-5.33l-74.02-139.87c-2.67-3.98-1.33-8.06,2.97-9.11l77.02-18.82c4.85-.77,9.71,1.3,12.51,5.32Z" transform="matrix(1.076 0 0 1.076 2.35 1.74) translate(-4287.00 0)" fill="#00E08F" />
  <path d="M4347.33,402.25c.96,3.59,4.65,5.73,8.24,4.77,3.59-.96,5.73-4.65,4.77-8.24-.96-3.59-4.65-5.73-8.24-4.77,0,0,0,0,0,0-3.59.96-5.72,4.65-4.76,8.24Z" transform="matrix(1.076 0 0 1.076 2.35 1.74) translate(-4287.00 0)" fill="#00391B" />
  <path d="M4961.21,448.98c-3.8-36.08-36.13-62.24-72.21-58.43-13.97,1.47-27.11,7.39-37.47,16.88l-32.85-4.82,16.44,28.42c-4.11,10.01-5.65,20.88-4.5,31.63,3.78,36.1,36.1,62.3,72.2,58.53,36.1-3.78,62.3-36.1,58.53-72.2h-.13Z" transform="matrix(1.076 0 0 1.076 2.35 1.74) translate(-4287.00 0)" fill="#00E08F" />
  <path d="M4932.73,455.86c0-4.39-3.56-7.95-7.95-7.95s-7.95,3.56-7.95,7.95c0,4.39,3.56,7.95,7.95,7.95s7.95-3.56,7.95-7.95h0Z" transform="matrix(1.076 0 0 1.076 2.35 1.74) translate(-4287.00 0)" fill="#00391B" />
  <path d="M4904.22,455.86c0-4.39-3.56-7.95-7.95-7.95s-7.95,3.56-7.95,7.95,3.56,7.95,7.95,7.95,7.95-3.56,7.95-7.95h0Z" transform="matrix(1.076 0 0 1.076 2.35 1.74) translate(-4287.00 0)" fill="#00391B" />
  <path d="M4875.72,455.86c0-4.39-3.56-7.95-7.95-7.95s-7.95,3.56-7.95,7.95,3.56,7.95,7.95,7.95,7.95-3.56,7.95-7.95h0Z" transform="matrix(1.076 0 0 1.076 2.35 1.74) translate(-4287.00 0)" fill="#00391B" />
</svg>